<?xml version="1.0" encoding="utf-8"?>
<!-- Generator: Adobe Illustrator 15.0.0, SVG Export Plug-In . SVG Version: 6.00 Build 0)  -->
<!DOCTYPE svg PUBLIC "-//W3C//DTD SVG 1.1//EN" "http://www.w3.org/Graphics/SVG/1.1/DTD/svg11.dtd">
<svg version="1.1" id="Layer_1" xmlns="http://www.w3.org/2000/svg" xmlns:xlink="http://www.w3.org/1999/xlink" x="0px" y="0px"
	 width="167.444px" height="45.002px" viewBox="0 0 167.444 45.002" enable-background="new 0 0 167.444 45.002"
	 xml:space="preserve">
<rect x="106.012" y="9.832" fill="#676767" width="5.319" height="5.595"/>
<path fill="#676767" d="M71.776,9.902h7.883v15.905h7.468V9.902h8.142v18.395c0,0-0.165,4.564-4.268,4.564
	c-2.076,0-11.342,0-11.342,0v3.095h-7.883V9.902z"/>
<path fill="#676767" d="M122.19,34.617h6.567v6.071l6.221,0.033v-6.104h6.782v8.178c0,0-0.137,2.028-3.556,2.028
	c-1.729,0-9.447,0-9.447,0l-6.567-0.016V34.617z"/>
<path fill="#676767" d="M118.281,9.902h7.884v15.905h7.467V0.203h8.142v28.095c0,0-0.166,4.564-4.268,4.564
	c-2.077,0-11.341,0-11.341,0l-7.884-0.034V9.902z"/>
<line fill="none" stroke="#FF6600" stroke-miterlimit="10" x1="75.543" y1="9.902" x2="75.543" y2="35.957"/>
<rect x="61.163" y="9.902" fill="#676767" width="7.992" height="22.996"/>
<line fill="none" stroke="#FF6600" stroke-miterlimit="10" x1="65.158" y1="9.902" x2="65.158" y2="32.898"/>
<rect x="51.052" y="9.902" fill="#676767" width="7.992" height="22.996"/>
<line fill="none" stroke="#FF6600" stroke-miterlimit="10" x1="55.047" y1="9.902" x2="55.047" y2="32.898"/>
<line fill="#676767" x1="108.17" y1="32.827" x2="108.17" y2="22.566"/>
<path fill="none" stroke="#FF6600" stroke-miterlimit="10" d="M75.543,29.167h13.674c0,0,1.974-0.027,1.974-2.221s0-17.044,0-17.044
	"/>
<line fill="none" stroke="#FF6600" stroke-miterlimit="10" x1="122.203" y1="9.902" x2="122.203" y2="29.167"/>
<path fill="none" stroke="#FF6600" stroke-miterlimit="10" d="M121.872,29.167h14.006c0,0,1.973-0.027,1.973-2.221
	s0-26.744,0-26.744"/>
<path fill="#676767" d="M116.161,32.827c0,0,0-16.4,0-18.56c0-2.962-2.139-4.436-3.097-4.436c-0.959,0-4.895,0-4.895,0v12.291
	L97.905,9.902h-4.109v7.667h2.315l12.059,15.258H116.161z"/>
<path fill="none" stroke="#FF6600" stroke-miterlimit="10" d="M106.012,12.629c0,0,2.773,0,4.648,0c1.535,0,1.506,2.371,1.506,2.371
	v12.896l-3.51-0.019L96.83,13.391l-1.917-0.006"/>
<path fill="none" stroke="#FF6600" stroke-miterlimit="10" d="M125.503,34.617v8.045h10.54c0,0,2.38,0.019,2.38-1.68
	c0-1.66,0-6.365,0-6.365"/>
<path fill="#676767" d="M167.443,32.898h-7.902V16.953h-7.486v9.393l0.979-1.861v-0.499l0,0l-0.028-3.684l5.497,0.022l-0.002,4.879
	l-4.438,7.694h-10.169V14.457c0,0,0.164-4.575,4.278-4.575c2.08,0,12.433,0,14.875,0c4.511,0,4.396,4.359,4.396,4.359V32.898z"/>
<path fill="none" stroke="#FF6600" stroke-miterlimit="10" d="M163.576,32.898V15.477c0,0,0-2.096-1.935-2.096
	c-3.502,0-10.632,0-11.77,0c-2.253,0-2.238,2.118-2.238,2.118l-0.016,13.997h5.301l2.985-5.168l-0.029-2.318l-2.856,0.008"/>
<g>
	<circle fill="#FF6600" cx="22.501" cy="22.501" r="22.501"/>
	<path fill="#231F20" d="M31.67,30.708c0,0,0.84,4.322-1.446,4.785c0,0,1.801,2.674,0.766,4.373
		c-1.035,1.699-2.987,2.496-2.987,2.496s-6.472-2.884-6.616-8.624c-0.145-5.74,9.759-13.315,12.005-12.795
		S31.67,30.708,31.67,30.708z"/>
	<path fill="#231F20" d="M32.604,33.271c0,0,7.16-6.114,7.504-12.056c0.357-6.15-4.529-12.288-9.981-14.785
		c-0.507-0.232-1.117-0.131-1.629-0.298c-0.294-0.095-1.053-0.67-1.336-0.753c-6.25-1.815-10.112-2.004-14.28,0.478
		C7.549,9.031,5.46,16.951,5.943,20.069c0,0,0.414,2.097,1.732,4.924L32.604,33.271z"/>
	<g>
		
			<path fill="#FFEBBC" stroke="#000000" stroke-width="0.25" stroke-linecap="round" stroke-linejoin="round" stroke-miterlimit="10" d="
			M4.444,25.826c0,0,0.923,5.319,7.038,8.908c0,0,4.837,2.595,12.661,0.409c0,0,1.117-0.082,1.358-0.979
			c0,0,2.885,3.764,6.689-0.188c0,0,3.531-5.325-4.162-5.053c0,0-1.443-5.043-0.26-10.413c0,0,0.234-4.669-5.659-7.161
			c-0.634-0.268-2.009-1.066-3.262-1.272c-7.002-1.147-9.183,2.799-9.183,2.799l-2.254,6.768c0,0-0.238,0.859-2.086,2.148
			C3.946,22.754,4.403,25.458,4.444,25.826z"/>
		
			<path fill="#231F20" stroke="#000000" stroke-width="0.25" stroke-linecap="round" stroke-linejoin="round" stroke-miterlimit="10" d="
			M18.022,36.084L18.022,36.084c-4.113,0-6.547-1.28-6.571-1.293C5.379,31.228,4.39,25.89,4.38,25.837
			c-0.003-0.027-0.008-0.061-0.013-0.102c-0.332-2.54,0.317-3.574,0.92-3.995c1.799-1.254,2.059-2.104,2.062-2.112l2.254-6.771
			c0.022-0.042,1.744-3.052,6.805-3.052c0.774,0,1.599,0.071,2.45,0.21c0.96,0.157,1.969,0.648,2.705,1.006
			c0.226,0.111,0.421,0.205,0.572,0.269c5.867,2.481,5.7,7.177,5.698,7.225c-1.104,5.024,0.103,9.81,0.245,10.342
			c2.541-0.082,4.129,0.442,4.725,1.552c0.81,1.508-0.502,3.519-0.558,3.604c-1.174,1.221-2.374,1.835-3.576,1.835
			c-1.666,0-2.839-1.206-3.142-1.552c-0.31,0.824-1.367,0.911-1.378,0.912C22.075,35.789,20.01,36.084,18.022,36.084z M16.408,9.934
			c-4.98,0-6.67,2.945-6.687,2.975l-2.249,6.758c-0.009,0.032-0.265,0.892-2.111,2.18c-0.574,0.399-1.19,1.396-0.866,3.872
			c0.006,0.042,0.01,0.076,0.012,0.101c0.009,0.049,0.991,5.329,7.006,8.86c0.022,0.012,2.429,1.276,6.508,1.276
			c1.976,0,4.03-0.293,6.104-0.873c0.024-0.004,1.086-0.092,1.313-0.934c0.006-0.024,0.025-0.042,0.05-0.047
			c0.024-0.005,0.049,0.004,0.063,0.024c0.013,0.016,1.245,1.594,3.117,1.594c1.165,0,2.333-0.601,3.475-1.787
			c0.006-0.011,1.318-2.022,0.545-3.462c-0.575-1.07-2.147-1.57-4.658-1.482c-0.031,0.002-0.057-0.019-0.064-0.047
			c-0.015-0.051-1.434-5.12-0.262-10.443c0.001-0.036,0.16-4.644-5.621-7.088c-0.155-0.065-0.351-0.161-0.579-0.272
			c-0.728-0.355-1.726-0.841-2.668-0.996C17.992,10.004,17.176,9.934,16.408,9.934z"/>
	</g>
	<path fill="#231F20" d="M12.721,18.875c-0.011,0-0.022-0.001-0.034-0.005c-0.069-0.018-0.11-0.089-0.092-0.158
		c0.004-0.014,0.374-1.443-0.236-2.368c-0.276-0.417-0.717-0.674-1.309-0.761c-0.07-0.01-0.12-0.076-0.109-0.146
		c0.01-0.071,0.077-0.12,0.147-0.109c0.668,0.098,1.169,0.392,1.487,0.875c0.674,1.022,0.287,2.513,0.27,2.576
		C12.83,18.837,12.778,18.875,12.721,18.875z"/>
	
		<ellipse transform="matrix(-0.9509 -0.3095 0.3095 -0.9509 14.334 40.8965)" fill="#FFFFFF" cx="10.411" cy="19.311" rx="2.285" ry="3.152"/>
	
		<ellipse transform="matrix(-0.9509 -0.3095 0.3095 -0.9509 32.3336 51.4899)" fill="#FFFFFF" cx="20.251" cy="23.18" rx="3.843" ry="3.58"/>
	
		<ellipse transform="matrix(-0.951 -0.3093 0.3093 -0.951 15.1408 41.3136)" fill="#231F20" cx="10.845" cy="19.457" rx="1.836" ry="2.885"/>
	
		<ellipse transform="matrix(-0.9509 -0.3094 0.3094 -0.9509 33.5125 51.2483)" fill="#020202" cx="20.82" cy="22.967" rx="2.695" ry="3.053"/>
	<g>
		
			<ellipse transform="matrix(-0.9508 -0.3097 0.3097 -0.9508 35.1711 50.0062)" fill="#CCCBCB" cx="21.554" cy="22.212" rx="1.319" ry="1.36"/>
		<path fill="#231F20" d="M21.531,23.697c-0.148,0-0.296-0.023-0.438-0.07c-0.759-0.247-1.17-1.083-0.917-1.864
			c0.202-0.62,0.765-1.037,1.4-1.037c0.149,0,0.295,0.023,0.437,0.07c0.76,0.247,1.171,1.083,0.917,1.864
			C22.73,23.28,22.167,23.697,21.531,23.697z M21.578,20.985c-0.523,0-0.987,0.345-1.154,0.858c-0.21,0.646,0.127,1.335,0.75,1.538
			c0.116,0.038,0.236,0.057,0.357,0.057c0.523,0,0.987-0.345,1.154-0.858c0.21-0.645-0.127-1.334-0.75-1.538
			C21.819,21.004,21.699,20.985,21.578,20.985z"/>
	</g>
	<path fill="#231F20" d="M8.678,17.431c0,0,3.331-3.13,4.042,1.315c0,0,0.262-2.227-1.341-2.748
		C11.38,15.998,10.101,15.427,8.678,17.431z"/>
	<g>
		<path fill="#231F20" d="M17.34,20.872c0,0,0.887-2.021,4.057-1.023c3.169,0.998,2.673,4.013,2.673,4.013s1.114-3.165-2.554-4.225
			C17.848,18.578,17.34,20.872,17.34,20.872z"/>
		<path fill="#231F20" d="M24.07,23.992c-0.01,0-0.021-0.001-0.032-0.004c-0.065-0.017-0.106-0.081-0.096-0.146
			c0.02-0.119,0.438-2.917-2.584-3.869c-0.571-0.179-1.104-0.271-1.586-0.271c-1.749,0-2.292,1.173-2.313,1.222
			c-0.027,0.062-0.096,0.092-0.159,0.071c-0.063-0.021-0.101-0.086-0.086-0.151c0.003-0.016,0.383-1.616,2.554-1.616
			c0.53,0,1.13,0.096,1.784,0.285c1.2,0.347,2.028,0.951,2.463,1.797c0.641,1.242,0.195,2.541,0.177,2.595
			C24.173,23.958,24.123,23.992,24.07,23.992z M21.967,19.925c1.277,0.564,1.842,1.496,2.085,2.312
			c-0.045-0.264-0.128-0.54-0.268-0.812C23.442,20.765,22.833,20.262,21.967,19.925z"/>
	</g>
	<path fill="#231F20" d="M17.566,20.304c-0.026,0-0.051-0.007-0.074-0.023c-0.059-0.041-0.073-0.121-0.032-0.181
		c0.015-0.021,1.475-2.062,4.288-0.908c0.065,0.028,0.098,0.104,0.07,0.17c-0.027,0.065-0.104,0.097-0.169,0.07
		c-2.615-1.074-3.922,0.739-3.977,0.816C17.647,20.284,17.607,20.304,17.566,20.304z"/>
	<path fill="#231F20" d="M25.063,23.043c-0.549,0-0.927-0.363-0.932-0.368c-0.051-0.05-0.052-0.133-0.001-0.183
		c0.05-0.051,0.132-0.051,0.183-0.002c0.024,0.025,0.609,0.577,1.352,0.105c0.06-0.038,0.14-0.02,0.179,0.041
		c0.037,0.061,0.02,0.14-0.041,0.178C25.537,22.983,25.286,23.043,25.063,23.043z"/>
	<path fill="#231F20" d="M25.694,24.105c-0.778,0-1.554-0.608-1.59-0.637c-0.057-0.045-0.066-0.127-0.021-0.182
		c0.044-0.057,0.125-0.066,0.182-0.022c0.009,0.007,0.929,0.728,1.672,0.556c0.069-0.016,0.139,0.028,0.155,0.097
		c0.017,0.069-0.027,0.139-0.097,0.155C25.896,24.095,25.794,24.105,25.694,24.105z"/>
	<g>
		
			<ellipse transform="matrix(-0.951 -0.3093 0.3093 -0.951 35.8622 49.8376)" fill="#FFFFFF" cx="21.882" cy="22.076" rx="0.923" ry="1.018"/>
		<path fill="#231F20" d="M21.829,23.214c-0.103,0-0.205-0.016-0.301-0.048c-0.27-0.087-0.485-0.285-0.606-0.555
			c-0.119-0.266-0.133-0.571-0.039-0.861c0.156-0.479,0.589-0.813,1.054-0.813c0.102,0,0.204,0.016,0.302,0.048
			c0.269,0.088,0.484,0.285,0.605,0.555c0.119,0.266,0.133,0.572,0.039,0.861C22.726,22.879,22.293,23.214,21.829,23.214z
			 M21.936,21.196c-0.354,0-0.686,0.261-0.807,0.634c-0.074,0.228-0.064,0.467,0.029,0.675c0.091,0.203,0.25,0.351,0.45,0.414
			c0.072,0.024,0.146,0.036,0.222,0.036c0.354,0,0.686-0.261,0.808-0.634c0.074-0.228,0.063-0.468-0.03-0.675
			c-0.091-0.203-0.25-0.35-0.45-0.415C22.084,21.208,22.011,21.196,21.936,21.196z"/>
	</g>
	<g>
		
			<ellipse transform="matrix(-0.9508 -0.3097 0.3097 -0.9508 16.4898 39.8287)" fill="#CCCBCB" cx="11.406" cy="18.605" rx="1.077" ry="1.343"/>
		<path fill="#231F20" d="M11.263,20.055c-0.106,0-0.211-0.017-0.312-0.049c-0.312-0.102-0.555-0.345-0.684-0.687
			c-0.125-0.332-0.128-0.717-0.008-1.086c0.207-0.634,0.737-1.076,1.29-1.076c0.106,0,0.212,0.017,0.313,0.049
			c0.633,0.206,0.942,1.001,0.691,1.773C12.346,19.612,11.816,20.055,11.263,20.055z M11.549,17.415
			c-0.443,0-0.872,0.369-1.043,0.898c-0.103,0.313-0.101,0.638,0.003,0.914c0.102,0.267,0.286,0.455,0.522,0.532
			c0.075,0.024,0.153,0.037,0.232,0.037c0.443,0,0.872-0.369,1.043-0.897c0.208-0.637-0.029-1.286-0.525-1.447
			C11.706,17.427,11.627,17.415,11.549,17.415z"/>
	</g>
	<g>
		
			<ellipse transform="matrix(-0.9508 -0.3099 0.3099 -0.9508 17.0588 39.8217)" fill="#FFFFFF" cx="11.693" cy="18.556" rx="0.723" ry="1.113"/>
		<path fill="#231F20" d="M11.5,19.767c-0.066,0-0.13-0.01-0.191-0.03c-0.455-0.147-0.642-0.782-0.427-1.445
			c0.181-0.558,0.595-0.947,1.005-0.947c0.065,0,0.13,0.01,0.19,0.03c0.455,0.148,0.643,0.783,0.427,1.445
			C12.322,19.377,11.909,19.767,11.5,19.767z M11.887,17.603c-0.29,0-0.616,0.331-0.758,0.769c-0.166,0.507-0.046,1.02,0.26,1.119
			c0.035,0.012,0.073,0.018,0.111,0.018c0.29,0,0.616-0.33,0.759-0.769c0.165-0.507,0.045-1.02-0.261-1.119
			C11.962,17.609,11.925,17.603,11.887,17.603z"/>
	</g>
	<path fill="#231F20" d="M11.661,25.417c-0.05,0-0.098-0.029-0.119-0.078c-0.046-0.108-0.444-1.074-0.101-1.551
		c0.135-0.187,0.355-0.271,0.656-0.246c1.239,0.098,1.417,0.879,1.424,0.913c0.015,0.07-0.03,0.138-0.1,0.152
		c-0.07,0.015-0.138-0.03-0.153-0.1c-0.006-0.024-0.155-0.625-1.192-0.708c-0.207-0.017-0.346,0.029-0.425,0.139
		c-0.219,0.305,0.019,1.04,0.129,1.297c0.028,0.066-0.003,0.143-0.068,0.17C11.695,25.415,11.677,25.417,11.661,25.417z"/>
	<g>
		<path fill="#555555" d="M9.099,27.066c0,0,2.304,2.94,4.935,1.021c0,0,1.371,1.647-0.226,2.701
			C12.21,31.84,9.368,30.916,9.099,27.066z"/>
		<path fill="#231F20" d="M12.429,31.321c-1.574,0-3.255-1.313-3.459-4.246c-0.003-0.058,0.03-0.109,0.083-0.13
			c0.052-0.02,0.113-0.003,0.148,0.041c0.012,0.017,1.292,1.622,2.979,1.622c0.61,0,1.208-0.211,1.777-0.626
			c0.055-0.04,0.131-0.03,0.176,0.022c0.028,0.034,0.69,0.842,0.56,1.723c-0.068,0.464-0.343,0.856-0.814,1.168
			C13.457,31.174,12.955,31.321,12.429,31.321z M9.265,27.447c0.306,2.493,1.78,3.615,3.164,3.615c0.476,0,0.927-0.132,1.307-0.383
			c0.409-0.27,0.645-0.603,0.702-0.99c0.09-0.607-0.273-1.198-0.432-1.424c-0.583,0.399-1.197,0.602-1.826,0.602
			C10.822,28.867,9.744,27.942,9.265,27.447z"/>
	</g>
	<g>
		<path fill="#EC1C80" d="M10.418,30.346c0,0-0.333-1.486,1.54-1.33c0.807,0.068,1.654-0.147,1.654-0.147s1.012,0.298,0.831,0.908
			c-0.182,0.609-0.798,1.109-0.798,1.109S12.266,31.975,10.418,30.346z"/>
		<path fill="#231F20" d="M12.459,31.373c-0.712,0-1.428-0.313-2.127-0.929c-0.02-0.018-0.035-0.042-0.041-0.069
			c-0.005-0.024-0.13-0.608,0.221-1.046c0.28-0.35,0.771-0.498,1.458-0.441c0.101,0.008,0.208,0.013,0.317,0.013
			c0.667,0,1.287-0.155,1.293-0.157c0.022-0.006,0.046-0.006,0.068,0.001c0.026,0.007,0.651,0.196,0.869,0.596
			c0.081,0.15,0.098,0.309,0.049,0.472c-0.191,0.641-0.814,1.152-0.84,1.172C13.705,31.003,13.229,31.373,12.459,31.373z
			 M10.538,30.28c0.639,0.553,1.286,0.833,1.922,0.833c0.68,0,1.1-0.326,1.104-0.329c0.004-0.005,0.586-0.482,0.753-1.045
			c0.022-0.07,0.086-0.287-0.289-0.535c-0.166-0.109-0.349-0.178-0.422-0.201c-0.147,0.034-0.706,0.155-1.319,0.155
			c-0.118,0-0.232-0.005-0.339-0.014c-0.592-0.049-1.01,0.066-1.232,0.343C10.487,29.772,10.52,30.157,10.538,30.28z"/>
	</g>
	<path fill="#231F20" d="M29.536,34.336c-0.473,0-0.977-0.336-1.003-0.354c-0.011-0.007-0.021-0.016-0.029-0.026
		c-0.487-0.607-0.647-1.2-0.475-1.763c0.405-1.32,2.493-1.977,2.582-2.004c0.069-0.021,0.141,0.018,0.163,0.086
		c0.021,0.068-0.018,0.141-0.086,0.162c-0.021,0.006-2.046,0.644-2.41,1.833c-0.145,0.472-0.004,0.979,0.417,1.509
		c0.199,0.129,0.729,0.399,1.051,0.259c0.155-0.066,0.255-0.232,0.296-0.491c0.055-0.347-0.021-0.614-0.224-0.796
		c-0.337-0.301-0.898-0.283-0.993-0.256c-0.069,0.02-0.141-0.021-0.16-0.089c-0.019-0.068,0.021-0.141,0.09-0.16
		c0.193-0.053,0.841-0.04,1.236,0.313c0.188,0.167,0.395,0.483,0.307,1.03c-0.056,0.352-0.206,0.583-0.449,0.688
		C29.75,34.318,29.643,34.336,29.536,34.336z"/>
	<path fill="#231F20" d="M19.153,17.443c0,0,3.194-2.031,5.707,0.98c0,0,1,0.967,0.626-0.326c-0.374-1.293-4.177-3.33-6.268-1.2
		C19.218,16.897,18.464,17.775,19.153,17.443z"/>
	<path fill="#231F20" d="M13.568,15.353c0,0-0.759-4.056-3.664-1.192c0,0,0.438-2.042,2.667-1.489
		C14.05,13.039,13.568,15.353,13.568,15.353z"/>
</g>
</svg>
